<?xml version="1.0" standalone="no"?>
<!DOCTYPE svg PUBLIC "-//W3C//DTD SVG 20010904//EN"
 "http://www.w3.org/TR/2001/REC-SVG-20010904/DTD/svg10.dtd">
<svg version="1.0" xmlns="http://www.w3.org/2000/svg"
 width="910.000000pt" height="910.000000pt" viewBox="0 0 910.000000 910.000000"
 preserveAspectRatio="xMidYMid meet">
    <g transform="translate(0.000000,910.000000) scale(0.100000,-0.100000)"
    fill="gray" stroke="none">
        <path d="M940 7454 c-214 -32 -377 -144 -459 -317 -50 -105 -65 -172 -65 -278
        2 -250 172 -473 419 -552 l70 -22 3645 0 3645 0 70 22 c285 90 462 375 411
        660 -40 227 -194 400 -421 472 -45 14 -395 16 -3670 17 -1991 1 -3631 0 -3645
        -2z"/>
        <path d="M851 4980 c-193 -51 -341 -191 -407 -385 -22 -66 -27 -98 -27 -180 0
        -273 168 -491 439 -571 55 -16 278 -17 3699 -17 l3640 0 80 27 c100 34 148 62
        219 126 124 115 189 262 189 435 0 83 -4 114 -26 178 -69 200 -214 336 -412
        387 -77 20 -112 20 -3699 19 -3547 0 -3623 0 -3695 -19z"/>
        <path d="M843 2521 c-191 -55 -338 -196 -399 -384 -56 -171 -28 -360 73 -511
        82 -120 196 -200 341 -237 74 -19 149 -19 3692 -19 3543 0 3618 0 3692 19 145
        37 259 117 341 237 102 151 129 339 74 509 -58 177 -191 314 -367 377 l-65 23
        -3660 2 c-3470 2 -3663 1 -3722 -16z"/>
    </g>
</svg>