<svg version="1.0" xmlns="http://www.w3.org/2000/svg" viewBox="-80 30 500 280">
    <g transform="translate(-50,280) scale(0.1,-0.1)" fill="#000" stroke="none">
        <path d="M390 2068 c0 -256 -3 -331 -15 -363 -50 -140 15 -266 179 -345 77
        -37 120 -71 144 -115 6 -11 12 -15 12 -8 0 29 67 86 144 123 166 79 231 204
        181 345 -12 32 -15 107 -15 363 0 208 -4 322 -10 322 -6 0 -10 -121 -10 -342
        0 -415 6 -393 -118 -454 -48 -24 -103 -61 -130 -87 l-47 -47 -47 46 c-26 27
        -80 64 -128 88 -126 62 -120 40 -120 453 0 222 -4 343 -10 343 -6 0 -10 -114
        -10 -322z"/>
        <path d="M450 2179 c0 -134 -4 -218 -11 -231 -16 -30 -13 -130 5 -185 22 -65
        63 -113 144 -166 37 -25 78 -60 91 -77 l23 -32 37 39 c20 22 61 56 92 76 70
        45 114 97 135 160 18 55 21 155 5 185 -7 13 -11 97 -11 231 0 134 -4 211 -10
        211 -6 0 -10 -87 -10 -241 0 -146 -4 -248 -10 -260 -6 -10 -28 -28 -49 -38
        -52 -27 -96 -65 -142 -124 -22 -27 -39 -45 -39 -40 0 21 -107 127 -157 155
        -29 17 -58 38 -63 48 -6 11 -10 122 -10 259 0 154 -4 241 -10 241 -6 0 -10
        -77 -10 -211z"/>
        <path d="M530 2246 c0 -109 -4 -153 -16 -182 -33 -79 6 -193 79 -232 17 -10
        49 -33 71 -54 l41 -36 41 36 c22 21 54 44 71 54 73 38 112 153 79 232 -12 29
        -16 73 -16 182 0 210 -18 180 -22 -35 -3 -174 -4 -180 -27 -205 -34 -36 -48
        -33 -47 12 2 162 -6 372 -14 372 -6 0 -10 -53 -10 -140 l0 -140 -26 17 c-25
        16 -28 16 -55 0 l-29 -16 0 139 c0 87 -4 140 -10 140 -8 0 -17 -235 -13 -377
        0 -40 -15 -42 -48 -7 -23 25 -24 31 -27 205 -4 215 -22 245 -22 35z"/>
        <path d="M398 882 l-3 -319 -27 -40 c-41 -62 -75 -73 -222 -73 l-126 0 0 -96
        0 -96 148 4 c143 3 149 4 214 36 80 39 138 101 170 181 22 54 23 66 23 386 l0
        330 -87 3 -87 3 -3 -319z"/>
        <path d="M617 1194 c-4 -4 -7 -154 -7 -334 0 -299 -2 -332 -20 -384 -36 -107
        -104 -178 -215 -227 -43 -19 -72 -23 -203 -27 l-152 -4 0 -89 0 -89 148 0
        c167 0 230 12 326 63 79 41 192 154 234 233 62 120 67 153 67 524 l0 335 -85
        3 c-47 1 -89 0 -93 -4z"/>
        <path d="M837 1193 c-11 -10 -8 -571 3 -637 19 -119 83 -207 188 -258 65 -32
        71 -33 214 -36 l148 -4 0 95 0 95 -137 4 c-124 3 -141 5 -169 25 -66 47 -69
        64 -72 411 l-3 312 -83 0 c-45 0 -86 -3 -89 -7z"/>
        <path d="M1610 730 l0 -470 120 0 120 0 0 470 0 470 -120 0 -120 0 0 -470z"/>
        <path d="M2020 730 l0 -470 115 0 115 0 0 180 0 180 135 0 135 0 0 105 0 105
        -135 0 -135 0 0 80 0 80 140 0 140 0 0 105 0 105 -255 0 -255 0 0 -470z"/>
        <path d="M2703 748 c-100 -249 -185 -461 -189 -470 -6 -17 4 -18 123 -18 l128
        0 23 65 24 65 163 0 163 0 22 -65 22 -65 129 0 c71 0 129 2 129 4 0 2 -83 212
        -184 467 l-185 464 -93 3 -93 3 -182 -453z m326 -12 c23 -76 40 -140 38 -143
        -3 -2 -45 -2 -94 -1 l-90 3 45 153 c26 86 49 147 53 140 4 -7 25 -75 48 -152z"/>
        <path d="M3527 1193 c-4 -3 -7 -215 -7 -470 l0 -463 203 0 c292 0 395 27 490
        129 84 89 117 187 117 342 0 159 -43 264 -145 357 -66 60 -137 90 -250 103
        -92 10 -398 12 -408 2z m457 -236 c75 -41 106 -111 106 -243 0 -106 -30 -172
        -98 -211 -39 -23 -60 -28 -139 -31 l-93 -4 0 254 c0 140 3 258 8 262 15 16
        174 -4 216 -27z"/>
    </g>
</svg>
