<svg enable-background="new 0 0 50 50" height="50px" id="Layer_1" version="1.1" viewBox="0 0 50 50" width="50px" xml:space="preserve" xmlns="http://www.w3.org/2000/svg" xmlns:xlink="http://www.w3.org/1999/xlink"><path d="M25,15.801l-6.543-6.543c-2.198-2.198-5.41-2.199-7.607-0.001l-1.592,1.592  c-2.198,2.198-2.197,5.41,0.001,7.607L15.802,25l-6.543,6.543c-2.198,2.197-2.199,5.41-0.001,7.607l1.592,1.592  c2.198,2.197,5.41,2.196,7.607-0.001L25,34.197l6.543,6.544c2.197,2.197,5.409,2.198,7.607,0.001l1.592-1.592  c2.198-2.197,2.196-5.41-0.001-7.607L34.198,25l6.544-6.543c2.197-2.198,2.199-5.41,0.001-7.607l-1.592-1.592  c-2.198-2.198-5.41-2.197-7.607,0.001L25,15.801z" fill="#231F20"/></svg>